<?xml version="1.0" encoding="UTF-8" standalone="no"?><!DOCTYPE svg PUBLIC "-//W3C//DTD SVG 1.1//EN" "http://www.w3.org/Graphics/SVG/1.1/DTD/svg11.dtd"><svg width="100%" height="100%" viewBox="0 0 96 96" version="1.1" xmlns="http://www.w3.org/2000/svg" xmlns:xlink="http://www.w3.org/1999/xlink" xml:space="preserve" xmlns:serif="http://www.serif.com/" style="fill-rule:evenodd;clip-rule:evenodd;stroke-linejoin:round;stroke-miterlimit:2;"><path d="M30.888,49.427c-2.388,-3.34 -3.437,-6.348 -4.141,-10.242c-1.006,-5.566 -1.336,-5.462 -3.596,-15.718c3.143,4.099 6.298,8.568 11.266,11.374c1.406,1.266 2.651,2.316 3.729,3.333c-0.962,-5.72 -0.265,-9.155 1.686,-14.149c2.472,-6.33 2.038,-6.421 6.142,-18.329c0.855,6.096 1.485,12.579 5.209,18.432c1.84,5.26 3.258,8.039 2.724,11.989c0.889,-0.93 1.902,-1.825 3.082,-2.787c4.721,-3.849 4.422,-4.111 12.876,-11.592c-2.021,5.133 -4.389,10.469 -4.066,16.678c-0.974,5.416 -1.02,8.257 -3.89,11.43c3.031,-0.883 5.688,-1.142 9.014,-0.726c7.039,0.881 6.288,-0.223 18.003,-0.429c-5.512,1.997 -11.42,3.942 -16.236,7.716c-5.494,2.916 -7.349,3.448 -12.707,3.693l-2.101,-0.198c0.622,0.49 1.333,1.21 2.243,2.298c3.088,4.592 6.83,5.86 9.838,8.237c-7.693,-1.539 -7.77,-2.594 -11.951,-3.257c-3.636,-0.576 -5.073,-0.895 -8.306,-3.834l-0.006,-0.005l-1.563,-1.452c-0.436,0.09 -0.459,1.559 -0.451,3.129c-0.218,4.965 -1.004,9.046 -1.597,23.632c-0.011,0.277 0.382,1.367 0.371,1.651l-1.272,-0.2c0.265,-10.054 1.758,-25.402 1.778,-28.821l-0.207,0.622c-0.188,-0.448 -0.454,-0.884 -0.8,-1.333c-0.012,-0.001 -0.023,-0.001 -0.035,-0.002c-0.018,0.046 -0.036,0.092 -0.053,0.139l-0.154,-0.132c-0.236,0.202 -0.489,0.432 -0.761,0.696l-2.659,2.657c-0.146,0.147 -0.304,0.282 -0.471,0.404c-2.953,2.163 -4.889,2.667 -8.057,2.867c-3.749,0.237 -3.693,0.476 -10.617,1.196c2.855,-1.85 5.78,-3.103 7.845,-6.333c0.36,-0.35 0.722,-0.653 1.087,-0.916c-3.42,-0.807 -2.485,-0.92 -7.163,-2.903c-3.538,-4.498 -10.936,-5.278 -15.401,-7.442c11.42,0.675 10.226,0.313 15.674,-0.759c2.384,-0.469 4.146,-0.689 5.695,-0.616Zm15.975,5.875c0.352,-0.89 0.677,-2.039 0.961,-3.6l0.551,-3.311c-0.093,0.244 -0.178,0.491 -0.253,0.741c-0.401,1.639 -0.703,3.669 -0.703,3.669c0,0 -0.355,1.135 -0.555,2.5Zm-2.244,-0.065c-0.428,-0.623 -0.628,-1.435 -0.655,-2.473c0.387,0.857 0.633,1.641 0.655,2.473Z" style="fill:#971e1e;"/></svg>