<?xml version="1.0" encoding="UTF-8" standalone="no"?><!DOCTYPE svg PUBLIC "-//W3C//DTD SVG 1.1//EN" "http://www.w3.org/Graphics/SVG/1.1/DTD/svg11.dtd"><svg width="100%" height="100%" viewBox="0 0 96 96" version="1.1" xmlns="http://www.w3.org/2000/svg" xmlns:xlink="http://www.w3.org/1999/xlink" xml:space="preserve" xmlns:serif="http://www.serif.com/" style="fill-rule:evenodd;clip-rule:evenodd;stroke-linejoin:round;stroke-miterlimit:2;"><path d="M30.068,9.707c3.869,-1.022 7.267,-1.868 8.812,-2.249c0.588,-0.144 1.191,-0.223 1.796,-0.236c2.33,-0.049 8.321,-0.173 8.321,-0.173c0,0 4.969,0.937 9.729,1.878c-0.493,4.571 -1.64,11.209 -3.44,19.915c-0.02,0.099 0.04,0.197 0.141,0.229c0.101,0.031 0.21,-0.014 0.255,-0.105c3.625,-7.343 7.164,-13.265 10.641,-18.137c0.152,-0.213 0.415,-0.317 0.671,-0.266c1.018,0.201 3.53,0.699 3.53,0.699c1.072,0.212 2.079,0.657 2.943,1.3l12.676,9.436c1.379,1.364 2.519,2.566 3.052,4.249c0,0 0,0.001 0,0.001c0.015,0.032 0.88,1.865 1.317,2.79c0.163,0.346 0.271,0.716 0.318,1.095c0.112,0.89 0.315,2.504 0.315,2.504c0,0 -23.487,-2.094 -36.19,12.06c-2.041,2.274 -1.1,0.546 -4.02,7.172c-1.409,3.199 -1.699,8.372 -1.585,13.141c0.042,1.737 0.251,6.987 0.251,6.987l0.674,14.435l-1.849,2.518c-0.874,-1.391 -0.939,-2.584 -0.562,-4.574c0.16,-0.847 0.59,-2.311 0.171,-11.858c-0.133,-3.021 -0.564,-6.261 -0.583,-7.515c-0.067,-4.385 -0.18,-8.708 -1.138,-11.265c-1.335,-3.565 -2.365,-6.582 -4.919,-8.967c-7.104,-6.634 -20.272,-9.222 -29.265,-11.585c-4.585,-1.205 1.062,-0.437 -7.278,-0.548l6.723,-10.952c0,0 0.254,-0.271 0.702,-0.726c1.606,1.007 3.714,2.413 6.295,4.194c0.192,0.131 0.445,0.146 0.652,0.038c0.207,-0.108 0.33,-0.32 0.318,-0.544c-0.592,-1.179 -1.965,-3.114 -4.618,-6.257c2.562,-2.379 6.145,-5.397 9.099,-6.718c1.055,-0.472 2.466,-0.951 4.064,-1.417l2.752,3.912c0.037,0.052 0.108,0.071 0.168,0.044c0.06,-0.027 0.091,-0.091 0.073,-0.151c-0.569,-1.896 -0.896,-3.328 -1.014,-4.353Z" style="fill:#efd44d;"/></svg>