<?xml version="1.0" encoding="UTF-8" standalone="no"?><!DOCTYPE svg PUBLIC "-//W3C//DTD SVG 1.1//EN" "http://www.w3.org/Graphics/SVG/1.1/DTD/svg11.dtd"><svg width="100%" height="100%" viewBox="0 0 96 96" version="1.1" xmlns="http://www.w3.org/2000/svg" xmlns:xlink="http://www.w3.org/1999/xlink" xml:space="preserve" xmlns:serif="http://www.serif.com/" style="fill-rule:evenodd;clip-rule:evenodd;stroke-linejoin:round;stroke-miterlimit:2;"><path d="M46.461,18.035c0.492,0.123 1.004,0.189 1.539,0.189c3.856,0 9.529,-9.947 11.853,-7.283l2.616,2.856c1.238,1.701 2.362,3.69 3.349,5.979c0.031,-0.01 0.061,-0.02 0.09,-0.03c2.172,5.119 3.667,11.716 4.243,19.92c-8.046,8.904 -19.802,19.494 -20.207,19.86c-0.006,0.005 -0.009,0.014 -0.007,0.021c0.001,0.008 0.007,0.015 0.014,0.017c-0.06,0.519 -9.387,7.077 -20.613,12.665c-2.468,-5.893 -3.825,-13.506 -3.748,-24.23c0.091,-12.54 1.994,-22.167 5.131,-29.048l0.102,0.018c1.526,-3.29 3.337,-5.941 5.368,-7.973c0.889,-0.449 1.643,-0.636 2.161,-0.403l-0.849,4.119c-0.278,1.347 0.159,2.742 1.154,3.691c0.996,0.949 2.41,1.318 3.742,0.976l0,-0l4.062,-1.345Z" style="fill:#fbe6d8;"/><path d="M70.149,38.539c0.183,2.659 0.273,5.485 0.262,8.48c-0.103,27.724 -17.07,39.847 -21.41,42.495c-0.674,0.381 -1.474,0.456 -2.205,0.204c-1.919,-0.674 -5.856,-2.449 -9.833,-6.554c-3.113,-3.214 -5.707,-6.821 -7.628,-11.489c11.227,-5.686 20.553,-12.359 20.613,-12.887c-0.008,-0.003 -0.013,-0.01 -0.014,-0.018c-0.001,-0.008 0.001,-0.016 0.007,-0.022c0.405,-0.372 12.161,-11.148 20.207,-20.209Z" style="fill:#fbe2d2;"/><path d="M46.461,18.035l-4.062,1.345l-0,0c-1.332,0.342 -2.747,-0.027 -3.742,-0.976c-0.996,-0.949 -1.432,-2.344 -1.154,-3.691l0.849,-4.119c0.162,0.073 0.301,0.187 0.413,0.347c2.349,3.337 4.642,6.328 7.697,7.094Z" style="fill:#fbe2d2;"/></svg>