<?xml version="1.0" encoding="UTF-8" standalone="no"?><!DOCTYPE svg PUBLIC "-//W3C//DTD SVG 1.1//EN" "http://www.w3.org/Graphics/SVG/1.1/DTD/svg11.dtd"><svg width="100%" height="100%" viewBox="0 0 96 96" version="1.1" xmlns="http://www.w3.org/2000/svg" xmlns:xlink="http://www.w3.org/1999/xlink" xml:space="preserve" xmlns:serif="http://www.serif.com/" style="fill-rule:evenodd;clip-rule:evenodd;stroke-linejoin:round;stroke-miterlimit:2;"><g><path d="M22.029,62.607c-1.451,-3.877 -2.687,-8.282 -3.6,-13.281c-0.117,-0.641 -0.226,-1.292 -0.334,-1.953c-0.035,-0.216 -0.007,-0.438 -0.007,-0.657c0,-18.621 7.957,-34.531 19.141,-40.778c0.631,-0.343 1.392,-0.342 2.022,0c2.434,1.317 8.49,4.608 8.49,4.608c0.162,0.088 0.357,0.088 0.518,0l8.423,-4.578c0.614,-0.334 1.354,-0.344 1.977,-0.027c12.061,6.298 21.615,22.349 18.751,40.775c-1.075,6.915 -2.762,12.762 -4.799,17.7c-9.01,21.845 -24.863,25.905 -24.863,25.905c0,0 -16.862,-4.041 -25.72,-27.713Z" style="fill:#ffeaea;"/></g><g><path d="M22.029,62.607c-1.451,-3.877 -2.687,-8.282 -3.6,-13.281c-0.117,-0.641 -0.226,-1.292 -0.334,-1.953c-0.035,-0.216 -0.007,-0.438 -0.007,-0.657c0,-18.621 7.957,-34.531 19.141,-40.778c0.631,-0.343 1.392,-0.342 2.022,0c2.434,1.317 8.49,4.608 8.49,4.608c0.162,0.088 0.357,0.088 0.518,0l8.423,-4.578c0.614,-0.334 1.354,-0.344 1.977,-0.027c12.061,6.298 21.615,22.349 18.751,40.775c-1.075,6.915 -2.762,12.762 -4.799,17.7l-1.477,-4.792c-0.228,-0.738 -0.897,-1.252 -1.669,-1.28c-0.772,-0.028 -1.477,0.435 -1.758,1.155l-1.972,5.055c-0.058,0.15 -0.208,0.244 -0.368,0.232c-0.16,-0.012 -0.294,-0.127 -0.329,-0.284l-2.953,-13.054c-0.113,-0.498 -0.507,-0.883 -1.007,-0.984c-0.5,-0.101 -1.013,0.102 -1.31,0.517l-3.844,5.384c-0.122,0.171 -0.334,0.254 -0.54,0.212c-0.206,-0.042 -0.368,-0.202 -0.414,-0.407l-4.446,-20.148c-0.255,-1.156 -1.28,-1.978 -2.463,-1.977c-1.183,0.001 -2.207,0.825 -2.46,1.981l-4.518,20.624c-0.041,0.188 -0.181,0.339 -0.365,0.396c-0.184,0.056 -0.384,0.009 -0.524,-0.124l-6.93,-6.626c-0.356,-0.34 -0.874,-0.449 -1.337,-0.281c-0.463,0.168 -0.79,0.584 -0.845,1.073l-1.644,14.71c-0.019,0.167 -0.149,0.3 -0.316,0.322c-0.167,0.022 -0.327,-0.074 -0.388,-0.231l-2.37,-6.144c-0.276,-0.716 -0.972,-1.181 -1.739,-1.162c-0.767,0.019 -1.439,0.518 -1.679,1.246l-0.917,2.778Z" style="fill:#ffeaea;"/><path d="M22.029,62.607l0.917,-2.778c0.24,-0.729 0.913,-1.227 1.679,-1.246c0.767,-0.019 1.463,0.446 1.739,1.162l2.37,6.144c0.061,0.157 0.221,0.253 0.388,0.231c0.167,-0.022 0.298,-0.155 0.316,-0.322l1.644,-14.71c0.055,-0.489 0.382,-0.905 0.845,-1.073c0.463,-0.168 0.981,-0.059 1.337,0.281l6.93,6.626c0.139,0.133 0.339,0.181 0.524,0.124c0.184,-0.056 0.324,-0.207 0.365,-0.396l4.518,-20.624c0.253,-1.156 1.277,-1.98 2.46,-1.981c1.183,-0.001 2.208,0.822 2.463,1.977l4.446,20.148c0.045,0.205 0.207,0.365 0.414,0.407c0.206,0.042 0.418,-0.041 0.54,-0.212l3.844,-5.384c0.297,-0.415 0.809,-0.618 1.31,-0.517c0.5,0.101 0.895,0.486 1.007,0.984l2.953,13.054c0.035,0.157 0.169,0.272 0.329,0.284c0.16,0.012 0.309,-0.082 0.368,-0.232l1.972,-5.055c0.281,-0.72 0.986,-1.183 1.758,-1.155c0.772,0.028 1.442,0.542 1.669,1.28l1.477,4.792c-9.01,21.845 -24.863,25.905 -24.863,25.905c0,0 -16.862,-4.041 -25.72,-27.713Z" style="fill:#ffdcdb;fill-opacity:0.39;"/></g></svg>