<?xml version="1.0" encoding="UTF-8" standalone="no"?><!DOCTYPE svg PUBLIC "-//W3C//DTD SVG 1.1//EN" "http://www.w3.org/Graphics/SVG/1.1/DTD/svg11.dtd"><svg width="100%" height="100%" viewBox="0 0 96 96" version="1.1" xmlns="http://www.w3.org/2000/svg" xmlns:xlink="http://www.w3.org/1999/xlink" xml:space="preserve" xmlns:serif="http://www.serif.com/" style="fill-rule:evenodd;clip-rule:evenodd;stroke-linejoin:round;stroke-miterlimit:2;"><path d="M36.069,82.278c-5.39,-6.048 -10.862,-16.476 -12.245,-34.278c-0.677,-8.723 0.093,-16.863 2.427,-23.622c1.886,-5.428 5.96,-9.817 11.233,-12.1l-0.001,-0.002c0.186,-0.081 0.4,-0.072 0.579,0.024l9.351,5.024c0.339,0.182 0.747,0.182 1.086,0l9.351,-5.024c0.107,-0.058 0.818,-0.197 1.413,-0.282c0.484,-0.068 0.976,0.052 1.375,0.335l3.483,2.471c0.281,0.199 0.543,0.424 0.782,0.672c6.509,6.807 9.758,19.582 7.889,32.504c-0.935,6.468 -2.18,11.947 -3.616,16.59c-10.705,8.76 -22.497,14.249 -33.106,17.688Z" style="fill:#f7e3df;"/><path d="M69.161,64.341c-6.292,20.429 -16.31,24.69 -19.913,25.573c-0.832,0.196 -1.704,0.149 -2.512,-0.136c-2.029,-0.731 -6.414,-2.766 -10.862,-7.743c10.672,-3.431 22.53,-8.919 33.287,-17.694Z" style="fill:#f5dcd5;"/></svg>