<svg width="43" height="48" viewBox="0 0 43 48" fill="none" xmlns="http://www.w3.org/2000/svg">
<path d="M15.6308 21.5398C17.9412 19.2294 20.9226 17.7082 24.1493 17.1935C27.3759 16.6788 30.6827 17.1969 33.5973 18.6739C36.5118 20.1509 38.8851 22.5111 40.3781 25.4175C41.8712 28.3239 42.4075 31.6277 41.9106 34.8572C41.4137 38.0866 39.909 41.0764 37.6113 43.3995C35.3137 45.7227 32.3407 47.2603 29.1169 47.7928C25.8932 48.3253 22.5836 47.8254 19.6609 46.3645C16.7382 44.9037 14.352 42.5566 12.8429 39.6584L17.595 37.1841C18.5824 39.0805 20.1439 40.6163 22.0563 41.5722C23.9687 42.5281 26.1343 42.8552 28.2438 42.5068C30.3532 42.1583 32.2986 41.1522 33.8021 39.6321C35.3055 38.1119 36.2901 36.1556 36.6153 34.0424C36.9404 31.9292 36.5895 29.7674 35.6125 27.8656C34.6356 25.9638 33.0826 24.4194 31.1755 23.453C29.2684 22.4865 27.1046 22.1475 24.9932 22.4843C22.8819 22.8211 20.931 23.8165 19.4192 25.3283L15.6308 21.5398Z" fill="white"/>
<path d="M34.3716 13.4979C35.7706 16.4991 36.1853 19.8657 35.5567 23.1167C34.928 26.3678 33.288 29.337 30.871 31.6003C28.4539 33.8636 25.3835 35.3052 22.0982 35.7191C18.8129 36.1331 15.4808 35.4983 12.5778 33.9053C9.67488 32.3124 7.34958 29.8428 5.93405 26.8494C4.51852 23.8559 4.08518 20.4917 4.69592 17.2372C5.30666 13.9827 6.93024 11.0045 9.33476 8.7279C11.7393 6.45132 14.8017 4.99282 18.0847 4.56074L18.7932 9.94386C16.645 10.2266 14.6411 11.181 13.0677 12.6706C11.4943 14.1603 10.4319 16.1091 10.0323 18.2386C9.63268 20.3682 9.91624 22.5695 10.8425 24.5283C11.7687 26.4871 13.2903 28.103 15.1898 29.1453C17.0893 30.1877 19.2697 30.6031 21.4194 30.3322C23.5691 30.0613 25.5782 29.118 27.1598 27.637C28.7414 26.1561 29.8145 24.2132 30.2259 22.0859C30.6372 19.9586 30.3658 17.7557 29.4504 15.7918L34.3716 13.4979Z" fill="white"/>
</svg>
