<svg xmlns="http://www.w3.org/2000/svg" viewBox="0 0 1280 100" width="100%">
  <path d="M -106.66666666666667 40 Q -80 40 -53.33 20 Q 0 -20 53.33 20 Q 80 40 106.67 40 Q 133.33 40 160 20 Q 213.33 -20 266.67 20 Q 293.33 40 320 40 Q 346.67 40 373.33 20 Q 426.67 -20 480 20 Q 506.67 40 533.33 40 Q 560 40 586.67 20 Q 640 -20 693.33 20 Q 720 40 746.67 40 Q 773.33 40 800 20 Q 853.33 -20 906.67 20 Q 933.33 40 960 40 Q 986.67 40 1013.33 20 Q 1066.67 -20 1120 20 Q 1146.67 40 1173.33 40 Q 1200 40 1226.67 20 Q 1280 -20 1333.33 20 Q 1360 40 1386.67 40 L 1280 100 L 0 100 Z" fill="#282828"></path>
</svg>